<mxfile host="drawio-plugin" modified="2023-04-14T13:39:50.992Z" agent="5.0 (X11; Linux x86_64) AppleWebKit/537.36 (KHTML, like Gecko) Chrome/104.0.5112.102 Safari/537.36" etag="Zsdg9rKQ1hq74QbQaHBk" version="20.5.3" type="embed"><diagram id="lSokAbcfXSGMeVBiZo5u" name="Page-1"><mxGraphModel dx="2831" dy="1813" grid="1" gridSize="10" guides="1" tooltips="1" connect="1" arrows="1" fold="1" page="0" pageScale="1" pageWidth="850" pageHeight="1100" background="#FFFFFF" math="0" shadow="0"><root><mxCell id="0"/><mxCell id="1" parent="0"/><mxCell id="aK3J91lnGgMxlQ-kPJ-H-1" value="Feature A Analytic&lt;br&gt;Microservice" style="rounded=0;whiteSpace=wrap;html=1;fillColor=#cce5ff;strokeColor=#36393d;fontColor=#000000;" parent="1" vertex="1"><mxGeometry x="-555" y="-285" width="90" height="50" as="geometry"/></mxCell><mxCell id="aK3J91lnGgMxlQ-kPJ-H-2" value="Feature B AI&lt;br&gt;Microservice" style="rounded=0;whiteSpace=wrap;html=1;fillColor=#cdeb8b;strokeColor=#36393d;fontColor=#000000;" parent="1" vertex="1"><mxGeometry x="-557.5" y="-430" width="90" height="50" as="geometry"/></mxCell><mxCell id="aK3J91lnGgMxlQ-kPJ-H-3" value="Counter Metadata for&amp;nbsp; Feature A" style="shape=document;whiteSpace=wrap;html=1;boundedLbl=1;fillColor=#cce5ff;strokeColor=#36393d;fontColor=#000000;" parent="1" vertex="1"><mxGeometry x="-740" y="-295" width="90" height="75" as="geometry"/></mxCell><mxCell id="aK3J91lnGgMxlQ-kPJ-H-4" value="" style="rounded=0;whiteSpace=wrap;html=1;fillColor=#CCE5FF;strokeColor=#36393d;fontColor=#000000;" parent="1" vertex="1"><mxGeometry x="85" y="-285" width="40" height="30" as="geometry"/></mxCell><mxCell id="aK3J91lnGgMxlQ-kPJ-H-5" value="Policies for&amp;nbsp; Feature A" style="shape=document;whiteSpace=wrap;html=1;boundedLbl=1;fillColor=#cce5ff;strokeColor=#36393d;fontColor=#000000;" parent="1" vertex="1"><mxGeometry x="-410" y="-295" width="90" height="75" as="geometry"/></mxCell><mxCell id="aK3J91lnGgMxlQ-kPJ-H-6" value="Ansible Playbook for&amp;nbsp; Feature A" style="shape=document;whiteSpace=wrap;html=1;boundedLbl=1;fillColor=#cce5ff;strokeColor=#36393d;fontColor=#000000;" parent="1" vertex="1"><mxGeometry x="-147.5" y="-295" width="90" height="75" as="geometry"/></mxCell><mxCell id="aK3J91lnGgMxlQ-kPJ-H-7" value="" style="rounded=0;whiteSpace=wrap;html=1;fillColor=#CDEB8B;strokeColor=#36393d;fontColor=#000000;" parent="1" vertex="1"><mxGeometry x="85" y="-415" width="40" height="30" as="geometry"/></mxCell><mxCell id="aK3J91lnGgMxlQ-kPJ-H-8" value="Persistence Subscription Metadata for&amp;nbsp; Feature B" style="shape=document;whiteSpace=wrap;html=1;boundedLbl=1;fillColor=#cdeb8b;strokeColor=#36393d;fontColor=#000000;" parent="1" vertex="1"><mxGeometry x="-720" y="-450" width="90" height="95" as="geometry"/></mxCell><mxCell id="aK3J91lnGgMxlQ-kPJ-H-9" value="Workflow Metadata for&amp;nbsp; Feature B" style="shape=document;whiteSpace=wrap;html=1;boundedLbl=1;fillColor=#cdeb8b;strokeColor=#36393d;fontColor=#000000;" parent="1" vertex="1"><mxGeometry x="-252.5" y="-445" width="90" height="95" as="geometry"/></mxCell><mxCell id="aK3J91lnGgMxlQ-kPJ-H-10" value="Feature C Analytic&lt;br&gt;Microservice" style="rounded=0;whiteSpace=wrap;html=1;fillColor=#ffff88;strokeColor=#36393d;fontColor=#000000;" parent="1" vertex="1"><mxGeometry x="-555" y="-564" width="90" height="50" as="geometry"/></mxCell><mxCell id="aK3J91lnGgMxlQ-kPJ-H-11" value="Counter Metadata for&amp;nbsp; Feature A" style="shape=document;whiteSpace=wrap;html=1;boundedLbl=1;fillColor=#ffff88;strokeColor=#36393d;fontColor=#000000;" parent="1" vertex="1"><mxGeometry x="-790" y="-564" width="90" height="75" as="geometry"/></mxCell><mxCell id="aK3J91lnGgMxlQ-kPJ-H-12" value="Netconf Configuration&amp;nbsp; for Feature C" style="shape=document;whiteSpace=wrap;html=1;boundedLbl=1;fillColor=#ffff88;strokeColor=#36393d;fontColor=#000000;" parent="1" vertex="1"><mxGeometry x="-92.5" y="-561.5" width="90" height="75" as="geometry"/></mxCell><mxCell id="aK3J91lnGgMxlQ-kPJ-H-13" value="" style="rounded=0;whiteSpace=wrap;html=1;fillColor=#ffff88;strokeColor=#36393d;fontColor=#000000;" parent="1" vertex="1"><mxGeometry x="80" y="-544" width="40" height="30" as="geometry"/></mxCell><mxCell id="aK3J91lnGgMxlQ-kPJ-H-14" value="Feature C&lt;br&gt;Automation&lt;br&gt;Composition" style="text;html=1;strokeColor=none;fillColor=none;align=center;verticalAlign=middle;whiteSpace=wrap;rounded=0;fontColor=#000000;" parent="1" vertex="1"><mxGeometry x="140" y="-544" width="60" height="30" as="geometry"/></mxCell><mxCell id="aK3J91lnGgMxlQ-kPJ-H-15" value="" style="rounded=1;whiteSpace=wrap;html=1;fillColor=none;strokeColor=#FFFF88;strokeWidth=7;arcSize=40;fontColor=#000000;" parent="1" vertex="1"><mxGeometry x="-830" y="-580" width="890" height="100" as="geometry"/></mxCell><mxCell id="aK3J91lnGgMxlQ-kPJ-H-16" style="edgeStyle=orthogonalEdgeStyle;rounded=0;orthogonalLoop=1;jettySize=auto;html=1;exitX=0.5;exitY=1;exitDx=0;exitDy=0;fontColor=#000000;" parent="1" source="aK3J91lnGgMxlQ-kPJ-H-15" target="aK3J91lnGgMxlQ-kPJ-H-15" edge="1"><mxGeometry relative="1" as="geometry"/></mxCell><mxCell id="aK3J91lnGgMxlQ-kPJ-H-17" value="Feature B&lt;br&gt;Automation&lt;br&gt;Composition" style="text;html=1;strokeColor=none;fillColor=none;align=center;verticalAlign=middle;whiteSpace=wrap;rounded=0;fontColor=#000000;" parent="1" vertex="1"><mxGeometry x="140" y="-415" width="60" height="30" as="geometry"/></mxCell><mxCell id="aK3J91lnGgMxlQ-kPJ-H-18" value="Feature A&lt;br&gt;Automation&lt;br&gt;Composition" style="text;html=1;strokeColor=none;fillColor=none;align=center;verticalAlign=middle;whiteSpace=wrap;rounded=0;fontColor=#000000;" parent="1" vertex="1"><mxGeometry x="140" y="-285" width="60" height="30" as="geometry"/></mxCell><mxCell id="aK3J91lnGgMxlQ-kPJ-H-19" value="" style="rounded=1;whiteSpace=wrap;html=1;fillColor=none;strokeColor=#CDEB8B;strokeWidth=7;arcSize=40;fontColor=#000000;" parent="1" vertex="1"><mxGeometry x="-830" y="-460" width="890" height="120" as="geometry"/></mxCell><mxCell id="aK3J91lnGgMxlQ-kPJ-H-20" value="" style="rounded=1;whiteSpace=wrap;html=1;fillColor=none;strokeColor=#CCE5FF;strokeWidth=7;arcSize=40;fontColor=#000000;" parent="1" vertex="1"><mxGeometry x="-830" y="-320" width="890" height="105" as="geometry"/></mxCell></root></mxGraphModel></diagram></mxfile>